<svg xmlns="http://www.w3.org/2000/svg" version="1.1" xmlns:xlink="http://www.w3.org/1999/xlink" xmlns:svgjs="http://svgjs.dev/svgjs" viewBox="0 0 800 800"><defs><filter id="uuunion-blur" x="-100%" y="-100%" width="400%" height="400%" color-interpolation-filters="sRGB">
        <feGaussianBlur in="SourceGraphic" stdDeviation="4.5 0" result="blur"></feGaussianBlur>
        <feDropShadow stdDeviation="12.307692307692308" in="blur" dx="10" dy="10" flood-color="hsl(205, 23%, 72%)" flood-opacity="0.25" x="0%" y="0%" width="100%" height="100%"></feDropShadow>
      </filter><filter id="uuunion-blur2" x="-100%" y="-100%" width="400%" height="400%" color-interpolation-filters="sRGB">
        <feGaussianBlur in="SourceGraphic" stdDeviation="4.5 0" result="blur"></feGaussianBlur>
        <feDropShadow stdDeviation="12.307692307692308" in="blur" dx="-10" dy="-10" flood-color="hsl(205, 23%, 72%)" flood-opacity="0.25" x="0%" y="0%" width="100%" height="100%"></feDropShadow>
      </filter><linearGradient gradientTransform="rotate(0, 0.5, 0.5)" x1="50%" y1="0%" x2="50%" y2="100%" id="uuunion-grad"><stop stop-color="hsl(211, 23%, 81%)" offset="10%"></stop><stop stop-color="hsl(205, 23%, 72%)" offset="90%"></stop></linearGradient><linearGradient gradientTransform="rotate(125, 0.5, 0.5)" x1="50%" y1="0%" x2="50%" y2="100%" id="uuunion-grad2"><stop stop-color="hsl(211, 23%, 81%)" offset="25%"></stop><stop stop-color="hsl(205, 23%, 72%)" offset="100%"></stop></linearGradient><linearGradient gradientTransform="rotate(224, 0.5, 0.5)" x1="50%" y1="0%" x2="50%" y2="100%" id="uuunion-grad3"><stop stop-color="hsl(211, 23%, 81%)" offset="0%"></stop><stop stop-color="hsl(205, 23%, 72%)" offset="75%"></stop></linearGradient></defs><path d="M-78.9 -79.21Q-64.29 -76.84 -49.68 -74.71 -35.08 -72.98 -20.47 -71.79 -5.86 -71.23 8.73 -71.35 23.34 -72.12 37.95 -73.5 52.55 -75.38 67.16 -77.61 81.76 -80.02 96.37 -82.44 110.98 -84.66 125.58 -86.53 140.19 -87.89 154.8 -88.65 169.4 -88.75 184.01 -88.18 198.61 -86.98 213.22 -85.24 227.83 -83.1 242.43 -80.72 257.04 -78.29 271.65 -75.99 286.25 -73.99 300.86 -72.46 315.46 -71.5 330.07 -71.2 344.68 -71.56 359.28 -72.58 373.89 -74.16 388.5 -76.19 403.1 -78.52 417.71 -80.95 432.31 -83.31 446.92 -85.42 461.53 -87.11 476.13 -88.26 490.74 -88.77 505.35 -88.61 519.95 -87.79 534.56 -86.37 549.16 -84.46 563.77 -82.21 578.38 -79.79 592.98 -77.39 607.59 -75.18 622.2 -73.35 636.8 -72.02 651.41 -71.31 666.01 -71.26 680.62 -71.88 695.23 -73.12 709.83 -74.89 724.44 -77.05 739.05 -79.44 753.65 -81.87 768.26 -84.16 782.86 -86.12 797.47 -87.62 812.08 -88.53 826.68 -88.79 841.29 -88.37 855.9 -87.32 856.95 -72.5 859.97 -57.69 864.72 -42.88 870.78 -28.06 877.64 -13.25 884.69 1.55 891.34 16.36 897.02 31.18 901.23 45.99 903.62 60.8 903.98 75.62 902.29 90.43 898.67 105.24 893.45 120.05 887.08 134.87 880.1 149.68 873.11 164.49 866.71 179.31 861.45 194.12 857.78 208.93 856.03 223.74 856.33 238.56 858.66 253.37 862.82 268.18 868.46 283 875.09 297.81 882.15 312.62 889.01 327.43 895.1 342.25 899.9 357.06 902.98 371.87 904.09 386.69 903.13 401.5 900.19 416.31 895.51 431.12 889.49 445.94 882.67 460.75 875.61 475.56 868.93 490.37 863.2 505.19 858.91 520 856.43 534.81 855.98 549.63 857.59 564.44 861.12 579.25 866.28 594.06 872.61 608.88 879.58 623.69 886.58 638.5 893.02 653.32 898.34 668.13 902.08 682.94 903.93 697.75 903.72 712.57 901.47 727.38 897.38 742.19 891.8 757.01 885.2 771.82 878.16 786.63 871.27 801.44 865.13 816.26 860.27 831.07 857.1 845.88 855.9 860.7 841.3 857.9 826.69 856.81 812.08 857.49 797.48 859.89 782.87 863.84 768.26 869.03 753.66 875.05 739.05 881.46 724.44 887.75 709.84 893.45 695.23 898.12 680.63 901.39 666.02 903.03 651.41 902.9 636.81 901.02 622.2 897.52 607.59 892.68 592.99 886.87 578.38 880.53 563.77 874.15 549.17 868.21 534.56 863.19 519.96 859.44 505.35 857.28 490.74 856.86 476.14 858.21 461.53 861.23 446.92 865.69 432.32 871.24 417.71 877.47 403.1 883.89 388.5 890.01 373.89 895.37 359.29 899.54 344.68 902.22 330.07 903.19 315.47 902.39 300.86 899.86 286.25 895.82 271.65 890.56 257.04 884.49 242.43 878.08 227.83 871.81 213.22 866.17 198.62 861.59 184.01 858.42 169.4 856.91 154.8 857.16 140.19 859.17 125.58 862.77 110.98 867.69 96.37 873.56 81.76 879.92 67.16 886.28 52.55 892.17 37.95 897.12 23.34 900.75 8.73 902.8 -5.86 903.1 -20.47 901.62 -35.08 898.49 -49.68 893.94 -64.29 888.32 -78.9 882.06 -78.95 867.04 -79.09 852.02 -79.32 837 -79.6 821.98 -79.91 806.96 -80.23 791.94 -80.53 776.92 -80.79 761.9 -80.98 746.88 -81.08 731.86 -81.09 716.84 -81 701.82 -80.83 686.8 -80.59 671.78 -80.3 656.76 -79.98 641.74 -79.66 626.72 -79.37 611.7 -79.13 596.68 -78.97 581.66 -78.9 566.64 -78.92 551.62 -79.03 536.6 -79.23 521.58 -79.49 506.56 -79.79 491.54 -80.12 476.52 -80.43 461.5 -80.7 446.48 -80.92 431.46 -81.05 416.44 -81.09 401.42 -81.04 386.4 -80.9 371.38 -80.68 356.36 -80.41 341.34 -80.09 326.32 -79.77 311.3 -79.47 296.28 -79.21 281.26 -79.02 266.24 -78.91 251.22 -78.9 236.2 -78.98 221.18 -79.15 206.16 -79.39 191.14 -79.68 176.12 -80 161.1 -80.32 146.08 -80.61 131.06 -80.85 116.04 -81.01 101.02 -81.09 86 -81.07 70.98 -80.96 55.96 -80.77 40.94 -80.51 25.92 -80.21 10.9 -79.89 -4.11 -79.57 -19.13 -79.3 -34.15 -79.08 -49.17 -78.94 -64.19 -78.9 -79.21" fill="url(#uuunion-grad)"></path><path d="M-78.9 -79.21Q-78.94 -64.19 -79.08 -49.17 -79.3 -34.15 -79.57 -19.13 -79.89 -4.11 -80.21 10.9 -80.51 25.92 -80.77 40.94 -80.96 55.96 -81.07 70.98 -81.09 86 -81.01 101.02 -80.85 116.04 -80.61 131.06 -80.32 146.08 -80 161.1 -79.68 176.12 -79.39 191.14 -79.15 206.16 -78.98 221.18 -78.9 236.2 -78.91 251.22 -79.02 266.24 -79.21 281.26 -79.47 296.28 -79.77 311.3 -80.09 326.32 -80.41 341.34 -80.68 356.36 -80.9 371.38 -81.04 386.4 -81.09 401.42 -70.83 404.33 -60.57 407.09 -50.31 409.61 -40.04 411.8 -29.78 413.59 -19.52 414.91 -0.28 415.92 3.04 415.98 15.82 409.08 28.57 401.38 41.28 392.96 53.93 383.95 66.51 374.5 79.01 364.78 91.43 354.98 103.75 345.3 115.97 335.9 128.09 326.95 140.12 318.6 152.05 310.94 163.9 304.04 175.67 297.93 187.38 292.58 199.03 287.94 210.65 283.92 222.24 280.39 233.84 277.2 245.45 274.18 257.1 271.17 268.81 267.98 280.6 264.46 292.49 260.47 304.49 255.9 316.63 250.66 328.91 244.71 341.35 238.05 353.97 230.7 366.76 222.74 379.73 214.26 392.88 205.39 406.21 196.27 419.72 187.06 433.38 177.92 447.2 168.99 461.14 160.42 475.2 152.33 489.34 144.79 503.55 137.89 517.8 131.63 532.05 126.01 546.28 120.99 560.46 116.49 574.55 112.41 588.52 108.63 602.35 105.02 615.99 101.43 629.44 97.72 642.66 93.76 655.64 89.43 668.35 84.64 680.78 79.31 692.93 73.41 704.78 66.93 716.34 59.89 727.62 52.34 738.62 44.36 749.36 36.05 759.86 27.52 770.14 18.9 780.24 10.31 790.18 1.88 800 -6.26 792.59 -23.6 786.05 -40.94 781.14 -58.27 778.43 -75.61 778.23 -92.94 780.56 -110.28 785.17 -127.61 791.5 -144.95 776.74 -143.08 761.99 -140.98 747.23 -138.81 732.48 -136.73 717.72 -134.89 702.97 -133.44 688.21 -132.49 673.46 -132.1 658.7 -132.31 643.95 -133.11 629.19 -134.42 614.44 -136.16 599.68 -138.19 584.93 -140.35 570.17 -142.49 555.42 -144.44 540.66 -146.05 525.91 -147.2 511.15 -147.81 496.4 -147.83 481.64 -147.25 466.89 -146.12 452.13 -144.53 437.38 -142.6 422.62 -140.47 407.87 -138.3 393.11 -136.26 378.35 -134.5 363.6 -133.16 348.84 -132.34 334.09 -132.1 319.33 -132.45 304.58 -133.38 289.82 -134.8 275.07 -136.62 260.31 -138.7 245.56 -140.87 230.8 -142.98 216.05 -144.86 201.29 -146.37 186.54 -147.4 171.78 -147.87 157.03 -147.74 142.27 -147.03 127.52 -145.78 112.76 -144.1 98.01 -142.1 83.25 -139.95 68.5 -137.8 53.74 -135.81 38.99 -134.14 24.23 -132.92 9.48 -132.23 -5.27 -132.13 -20.02 -132.62 -34.78 -133.68 -49.53 -135.21 -64.29 -137.1 -79.04 -139.21 -93.8 -141.39 -108.55 -143.45 -123.31 -145.26 -132.6 -133.19 -115.27 -114.68 -106.09 -105.98 -96.98 -97.14 -87.92 -88.21 -78.9 -79.21" fill="url(#uuunion-grad2)" filter="url(#uuunion-blur)"></path><path d="M821.99 389.96Q832.26 387.84 842.52 386.13 852.78 384.9 863.04 384.18 873.31 384 883.57 384.37 893.83 385.28 904.09 386.69 903.13 401.5 900.19 416.31 895.51 431.12 889.49 445.94 882.67 460.75 875.61 475.56 868.93 490.37 863.2 505.19 858.91 520 856.43 534.81 855.98 549.63 857.59 564.44 861.12 579.25 866.28 594.06 872.61 608.88 879.58 623.69 886.58 638.5 893.02 653.32 898.34 668.13 902.08 682.94 903.93 697.75 903.72 712.57 901.47 727.38 897.38 742.19 891.8 757.01 885.2 771.82 878.16 786.63 871.27 801.44 865.13 816.26 860.27 831.07 857.1 845.88 855.9 860.7 842.5 858.07 829.09 856.87 815.69 857.16 802.28 858.92 788.88 862.05 775.48 866.33 762.07 871.5 748.67 877.22 735.26 883.12 721.86 888.82 708.45 893.94 695.05 898.17 681.64 901.22 668.24 902.89 654.84 903.09 641.43 901.8 628.03 899.09 614.62 895.16 601.22 890.24 587.81 884.66 574.41 878.78 561.01 872.97 547.6 867.62 534.2 863.07 520.79 859.62 507.39 857.48 493.98 856.8 480.58 857.61 467.17 859.87 453.77 863.44 440.37 868.07 426.96 873.47 413.56 879.3 400.15 885.17 386.75 890.71 373.34 895.55 359.94 899.39 346.54 901.97 333.13 903.14 319.73 902.8 306.32 901 292.92 897.84 279.51 893.52 266.11 888.33 252.7 882.6 239.3 876.7 225.9 871.02 212.49 865.91 199.09 861.72 185.68 858.71 172.28 857.07 158.87 856.91 145.47 858.25 132.07 860.99 118.66 864.96 105.26 869.9 91.85 875.5 78.45 881.38 65.04 887.18 51.64 892.51 38.23 897.03 24.83 900.45 4.74 897.8 -1.89 882.89 -1.79 872.74 -1.67 862.59 -1.52 852.44 -1.35 842.29 -0.82 827.07 0.02 822 12.69 815.07 25.43 807.01 38.25 797.93 51.13 787.99 64.06 777.39 77.03 766.37 90.04 755.19 103.05 744.1 116.06 733.37 129.05 723.23 142.01 713.88 154.92 705.49 167.76 698.15 180.51 691.91 193.17 686.77 205.72 682.65 218.16 679.43 230.46 676.95 242.64 675 254.68 673.33 266.59 671.71 278.37 669.89 290.03 667.64 301.57 664.74 313.01 661.03 324.36 656.38 335.64 650.7 346.87 643.99 358.07 636.27 369.27 627.64 380.48 618.22 391.73 608.2 403.05 597.78 414.47 587.19 426 576.65 437.68 566.41 449.51 556.65 461.53 547.58 473.75 539.33 486.18 531.99 498.84 525.63 511.73 520.23 524.85 515.73 538.2 512.04 551.79 509.02 565.59 506.47 579.6 504.21 593.8 502.01 608.16 499.66 622.67 496.96 637.29 493.72 652 489.78 666.75 485.03 681.52 479.4 696.27 472.86 710.95 465.44 725.54 457.22 740 448.31 754.28 438.85 768.35 429.02 782.19 419.02 795.76 409.05 815.51 394.63 821.99 389.96" fill="url(#uuunion-grad3)" filter="url(#uuunion-blur2)"></path></svg>