<svg xmlns="http://www.w3.org/2000/svg" viewBox="0 0 24 24" height="24" width="24" id="Headphones-Customer-Support-Human--Streamline-Ultimate.svg"><desc>Headphones Customer Support Human Streamline Icon: https://streamlinehq.com</desc><g id="Headphones-Customer-Support-Human--Streamline-Ultimate.svg"><path d="M24 14a4.5 4.5 0 0 0 -3 -4.24V9A9 9 0 0 0 3 9v0.76a4.5 4.5 0 0 0 0 8.48 1.54 1.54 0 0 0 1.37 -0.18A1.53 1.53 0 0 0 5 16.83V9a7 7 0 0 1 14 0v7.83a1.49 1.49 0 0 0 0.5 1.1v0.57c0 1.48 -1.29 2 -2.5 2h-1.78a2 2 0 1 0 -1.72 3 2 2 0 0 0 1.72 -1H17c2.65 0 4.5 -1.64 4.5 -4V18a4.5 4.5 0 0 0 2.5 -4Z" fill="#e0edff" stroke-width="1"></path><path d="M15.14 14.05a0.83 0.83 0 0 1 0.7 -0.38 0.83 0.83 0 0 1 0.7 1.29 5.42 5.42 0 0 1 -9.08 0 0.83 0.83 0 1 1 1.4 -0.91 3.75 3.75 0 0 0 6.28 0Z" fill="#e0edff" stroke-width="1"></path><path d="M7 9.5a1.67 1.67 0 1 0 3.34 0A1.67 1.67 0 1 0 7 9.5" fill="#e0edff" stroke-width="1"></path><path d="M13.66 9.5a1.67 1.67 0 1 0 3.34 0 1.67 1.67 0 1 0 -3.34 0" fill="#e0edff" stroke-width="1"></path></g></svg>