<svg xmlns="http://www.w3.org/2000/svg" viewBox="0 0 24 24" height="24" width="24" id="Conversation-Text--Streamline-Ultimate.svg"><desc>Conversation Text Streamline Icon: https://streamlinehq.com</desc><g id="Conversation-Text--Streamline-Ultimate.svg"><path d="M9.3794 16.8633C9.3794 13.0986 12.929 10.0184 17.2901 10.0184C19.416 9.9908 21.4748 10.762 23.0594 12.1795C23.1235 12.2358 23.211 12.2577 23.2941 12.2381C23.3757 12.2113 23.4382 12.1451 23.4603 12.0621C23.6402 11.3957 23.7323 10.7087 23.7341 10.0184C23.7341 4.6305 18.4733 0.24 12 0.24S0.2659 4.6305 0.2659 10.0184C0.2963 12.3769 1.2721 14.6245 2.9745 16.2571L1.586 20.8822C1.4791 21.2431 1.8029 21.5844 2.1689 21.4965C2.197 21.4898 2.2244 21.4805 2.2509 21.469L7.5997 19.083C8.2664 19.3063 8.9498 19.4763 9.6434 19.5915C9.7335 19.6032 9.8229 19.5659 9.8781 19.4937C9.9217 19.4181 9.9217 19.3249 9.8781 19.2493C9.5491 18.4968 9.3793 17.6845 9.3794 16.8633ZM9.5554 12.2479H6.1329C5.5684 12.2479 5.2155 11.6367 5.4978 11.1478C5.6288 10.9209 5.8709 10.7811 6.1329 10.7811H9.5554C10.12 10.7811 10.4728 11.3923 10.1905 11.8812C10.0595 12.1081 9.8174 12.2479 9.5554 12.2479ZM16.4003 7.8476H6.1329C5.5684 7.8476 5.2155 7.2365 5.4978 6.7475C5.6288 6.5206 5.8709 6.3809 6.1329 6.3809H16.4003C16.9648 6.3809 17.3177 6.992 17.0354 7.4809C16.9044 7.7078 16.6623 7.8476 16.4003 7.8476Z" fill="#e0edff" stroke-width="1"></path><path d="M17.2901 11.4852C13.7406 11.4852 10.8461 13.8809 10.8461 16.834C10.8461 20.276 14.8357 23.0139 19.1187 21.9481L22.5411 23.7082C22.7143 23.7971 22.9244 23.7699 23.0692 23.6398C23.2193 23.5174 23.281 23.3168 23.2256 23.1313L22.3456 20.1977C23.2239 19.3088 23.7219 18.1129 23.7341 16.8633C23.7341 13.9298 20.8006 11.4852 17.2901 11.4852Z" fill="#e0edff" stroke-width="1"></path></g></svg>