<svg xmlns="http://www.w3.org/2000/svg" fill="none" viewBox="-0.625 -0.625 20 20" height="20" width="20" id="Align-Selection--Streamline-Plump.svg"><desc>Align Selection Streamline Icon: https://streamlinehq.com</desc><g id="Align-Selection--Streamline-Plump.svg"><path id="Vector" stroke="#000000" stroke-linecap="round" stroke-linejoin="round" d="M1.18894921875 10.1216015625c0.0167890625 0.333359375 0.27013671875 0.58671875 0.60353125 0.603515625 0.193484375 0.009726562499999999 0.44070312500000003 0.0170703125 0.74658203125 0.0170703125 0.30587890625 0 0.55309765625 -0.0073437500000000005 0.74658203125 -0.0170703125 0.33339453125 -0.016796875 0.5867421875 -0.27015625 0.60353125 -0.603515625C3.89891796875 9.9280859375 3.90625 9.680859375 3.90625 9.375c0 -0.305859375 -0.007332031249999999 -0.5530859375 -0.017074218749999998 -0.7466015625 -0.0167890625 -0.333359375 -0.27013671875 -0.58671875 -0.60353125 -0.603515625C3.0921601562500003 8.01515625 2.8449414062500002 8.0078125 2.5390625 8.0078125c-0.30587890625 0 -0.55309765625 0.0073437500000000005 -0.74658203125 0.0170703125 -0.33339453125 0.016796875 -0.5867421875 0.27015625 -0.60353125 0.603515625C1.17920703125 8.8219140625 1.171875 9.069140625 1.171875 9.375c0 0.305859375 0.007332031249999999 0.5530859375 0.017074218749999998 0.7466015625Z" stroke-width="1.25"></path><path id="Vector_2" stroke="#000000" stroke-linecap="round" stroke-linejoin="round" d="M14.8608203125 10.1216015625c0.016796875 0.333359375 0.27015625 0.58671875 0.603515625 0.603515625 0.193515625 0.009726562499999999 0.44074218750000005 0.0170703125 0.7466015625 0.0170703125 0.305859375 0 0.5530859375 -0.0073437500000000005 0.7466015625 -0.0170703125 0.333359375 -0.016796875 0.58671875 -0.27015625 0.603515625 -0.603515625C17.57078125 9.9280859375 17.578125 9.680859375 17.578125 9.375c0 -0.305859375 -0.0073437500000000005 -0.5530859375 -0.0170703125 -0.7466015625 -0.016796875 -0.333359375 -0.27015625 -0.58671875 -0.603515625 -0.603515625 -0.193515625 -0.009726562499999999 -0.44074218750000005 -0.0170703125 -0.7466015625 -0.0170703125 -0.305859375 0 -0.5530859375 0.0073437500000000005 -0.7466015625 0.0170703125 -0.333359375 0.016796875 -0.58671875 0.27015625 -0.603515625 0.603515625C14.85109375 8.8219140625 14.84375 9.069140625 14.84375 9.375c0 0.305859375 0.0073437500000000005 0.5530859375 0.0170703125 0.7466015625Z" stroke-width="1.25"></path><path id="Vector_3" stroke="#000000" stroke-linecap="round" stroke-linejoin="round" d="M1.18894921875 16.9575390625c0.0167890625 0.333359375 0.27013671875 0.58671875 0.60353125 0.603515625C1.98596484375 17.57078125 2.2331835937499998 17.578125 2.5390625 17.578125c0.30587890625 0 0.55309765625 -0.0073437500000000005 0.74658203125 -0.0170703125 0.33339453125 -0.016796875 0.5867421875 -0.27015625 0.60353125 -0.603515625C3.89891796875 16.7640234375 3.90625 16.516796875 3.90625 16.2109375c0 -0.305859375 -0.007332031249999999 -0.5530859375 -0.017074218749999998 -0.7466015625 -0.0167890625 -0.333359375 -0.27013671875 -0.58671875 -0.60353125 -0.603515625C3.0921601562500003 14.85109375 2.8449414062500002 14.84375 2.5390625 14.84375c-0.30587890625 0 -0.55309765625 0.0073437500000000005 -0.74658203125 0.0170703125 -0.33339453125 0.016796875 -0.5867421875 0.27015625 -0.60353125 0.603515625C1.17920703125 15.6578515625 1.171875 15.905078125 1.171875 16.2109375c0 0.305859375 0.007332031249999999 0.5530859375 0.017074218749999998 0.7466015625Z" stroke-width="1.25"></path><path id="Vector_4" stroke="#000000" stroke-linecap="round" stroke-linejoin="round" d="M8.0248828125 16.9575390625c0.016796875 0.333359375 0.27015625 0.58671875 0.603515625 0.603515625C8.8219140625 17.57078125 9.069140625 17.578125 9.375 17.578125c0.305859375 0 0.5530859375 -0.0073437500000000005 0.7466015625 -0.0170703125 0.333359375 -0.016796875 0.58671875 -0.27015625 0.603515625 -0.603515625 0.009726562499999999 -0.193515625 0.0170703125 -0.44074218750000005 0.0170703125 -0.7466015625 0 -0.305859375 -0.0073437500000000005 -0.5530859375 -0.0170703125 -0.7466015625 -0.016796875 -0.333359375 -0.27015625 -0.58671875 -0.603515625 -0.603515625C9.9280859375 14.85109375 9.680859375 14.84375 9.375 14.84375c-0.305859375 0 -0.5530859375 0.0073437500000000005 -0.7466015625 0.0170703125 -0.333359375 0.016796875 -0.58671875 0.27015625 -0.603515625 0.603515625 -0.009726562499999999 0.193515625 -0.0170703125 0.44074218750000005 -0.0170703125 0.7466015625 0 0.305859375 0.0073437500000000005 0.5530859375 0.0170703125 0.7466015625Z" stroke-width="1.25"></path><path id="Vector_5" stroke="#000000" stroke-linecap="round" stroke-linejoin="round" d="M14.8608203125 16.9575390625c0.016796875 0.333359375 0.27015625 0.58671875 0.603515625 0.603515625 0.193515625 0.009726562499999999 0.44074218750000005 0.0170703125 0.7466015625 0.0170703125 0.305859375 0 0.5530859375 -0.0073437500000000005 0.7466015625 -0.0170703125 0.333359375 -0.016796875 0.58671875 -0.27015625 0.603515625 -0.603515625C17.57078125 16.7640234375 17.578125 16.516796875 17.578125 16.2109375c0 -0.305859375 -0.0073437500000000005 -0.5530859375 -0.0170703125 -0.7466015625 -0.016796875 -0.333359375 -0.27015625 -0.58671875 -0.603515625 -0.603515625C16.7640234375 14.85109375 16.516796875 14.84375 16.2109375 14.84375c-0.305859375 0 -0.5530859375 0.0073437500000000005 -0.7466015625 0.0170703125 -0.333359375 0.016796875 -0.58671875 0.27015625 -0.603515625 0.603515625C14.85109375 15.6578515625 14.84375 15.905078125 14.84375 16.2109375c0 0.305859375 0.0073437500000000005 0.5530859375 0.0170703125 0.7466015625Z" stroke-width="1.25"></path><path id="Vector_6" stroke="#000000" stroke-linecap="round" stroke-linejoin="round" d="M1.18894921875 3.2856445312500004c0.0167890625 0.33339453125 0.27013671875 0.5867421875 0.60353125 0.60353125C1.98596484375 3.89891796875 2.2331835937499998 3.90625 2.5390625 3.90625c0.30587890625 0 0.55309765625 -0.007332031249999999 0.74658203125 -0.017074218749999998 0.33339453125 -0.0167890625 0.5867421875 -0.27013671875 0.60353125 -0.60353125C3.89891796875 3.0921601562500003 3.90625 2.8449414062500002 3.90625 2.5390625c0 -0.30587890625 -0.007332031249999999 -0.55309765625 -0.017074218749999998 -0.74658203125 -0.0167890625 -0.33339453125 -0.27013671875 -0.5867421875 -0.60353125 -0.60353125C3.0921601562500003 1.17920703125 2.8449414062500002 1.171875 2.5390625 1.171875c-0.30587890625 0 -0.55309765625 0.007332031249999999 -0.74658203125 0.017074218749999998 -0.33339453125 0.0167890625 -0.5867421875 0.27013671875 -0.60353125 0.60353125C1.17920703125 1.98596484375 1.171875 2.2331835937499998 1.171875 2.5390625c0 0.30587890625 0.007332031249999999 0.55309765625 0.017074218749999998 0.74658203125Z" stroke-width="1.25"></path><path id="Vector_7" stroke="#000000" stroke-linecap="round" stroke-linejoin="round" d="M8.0248828125 3.2856445312500004c0.016796875 0.33339453125 0.27015625 0.5867421875 0.603515625 0.60353125C8.8219140625 3.89891796875 9.069140625 3.90625 9.375 3.90625c0.305859375 0 0.5530859375 -0.007332031249999999 0.7466015625 -0.017074218749999998 0.333359375 -0.0167890625 0.58671875 -0.27013671875 0.603515625 -0.60353125 0.009726562499999999 -0.193484375 0.0170703125 -0.44070312500000003 0.0170703125 -0.74658203125 0 -0.30587890625 -0.0073437500000000005 -0.55309765625 -0.0170703125 -0.74658203125 -0.016796875 -0.33339453125 -0.27015625 -0.5867421875 -0.603515625 -0.60353125C9.9280859375 1.17920703125 9.680859375 1.171875 9.375 1.171875c-0.305859375 0 -0.5530859375 0.007332031249999999 -0.7466015625 0.017074218749999998 -0.333359375 0.0167890625 -0.58671875 0.27013671875 -0.603515625 0.60353125C8.01515625 1.98596484375 8.0078125 2.2331835937499998 8.0078125 2.5390625c0 0.30587890625 0.0073437500000000005 0.55309765625 0.0170703125 0.74658203125Z" stroke-width="1.25"></path><path id="Vector_8" stroke="#000000" stroke-linecap="round" stroke-linejoin="round" d="M14.8608203125 3.2856445312500004c0.016796875 0.33339453125 0.27015625 0.5867421875 0.603515625 0.60353125C15.6578515625 3.89891796875 15.905078125 3.90625 16.2109375 3.90625c0.305859375 0 0.5530859375 -0.007332031249999999 0.7466015625 -0.017074218749999998 0.333359375 -0.0167890625 0.58671875 -0.27013671875 0.603515625 -0.60353125C17.57078125 3.0921601562500003 17.578125 2.8449414062500002 17.578125 2.5390625c0 -0.30587890625 -0.0073437500000000005 -0.55309765625 -0.0170703125 -0.74658203125 -0.016796875 -0.33339453125 -0.27015625 -0.5867421875 -0.603515625 -0.60353125C16.7640234375 1.17920703125 16.516796875 1.171875 16.2109375 1.171875c-0.305859375 0 -0.5530859375 0.007332031249999999 -0.7466015625 0.017074218749999998 -0.333359375 0.0167890625 -0.58671875 0.27013671875 -0.603515625 0.60353125C14.85109375 1.98596484375 14.84375 2.2331835937499998 14.84375 2.5390625c0 0.30587890625 0.0073437500000000005 0.55309765625 0.0170703125 0.74658203125Z" stroke-width="1.25"></path><path id="Subtract" stroke="#000000" stroke-linecap="round" stroke-linejoin="round" d="M2.5853046875 3.90615234375c-0.04127734375 0.13873046875 -0.06837109375 0.28447265624999996 -0.07971875 0.43560546875000006 -0.0645546875 0.8595703124999999 -0.12801171875 2.0690625000000002 -0.15191796875 3.666953125m0 2.7325c0.02390625 1.597890625 0.08736328125 2.8073828124999998 0.15191796875 3.666953125 0.01134765625 0.15113281250000002 0.038445312499999995 0.296875 0.07971875 0.43558593749999996m1.32084765625 1.3208593750000002c0.13873046875 0.0412890625 0.28447265624999996 0.068359375 0.43560546875000006 0.0797265625 0.8595703124999999 0.06453125000000001 2.0690625000000002 0.12800781249999998 3.666953125 0.1519140625m2.7325 0c1.597890625 -0.02390625 2.8073828124999998 -0.0873828125 3.666953125 -0.1519140625 0.15113281250000002 -0.0113671875 0.29683593750000004 -0.0384375 0.43558593749999996 -0.0797265625M16.164609375 14.84375c0.0412890625 -0.13871093750000002 0.068359375 -0.284453125 0.0797265625 -0.43558593749999996 0.06453125000000001 -0.8595703124999999 0.12800781249999998 -2.0690625000000002 0.1519140625 -3.666953125m0 -2.7325c-0.02390625 -1.597890625 -0.0873828125 -2.8073828124999998 -0.1519140625 -3.6669921874999996 -0.0113671875 -0.15109375 -0.0384375 -0.29683593750000004 -0.0797265625 -0.43556640625000004M14.84375 2.5853046875c-0.13875 -0.0412734375 -0.284453125 -0.06837109375 -0.43558593749999996 -0.07971875 -0.8595703124999999 -0.0645546875 -2.0690625000000002 -0.12801171875 -3.666953125 -0.15191796875m-2.7325 0c-1.597890625 0.02390625 -2.8073828124999998 0.08736328125 -3.666953125 0.15191796875 -0.15113281250000002 0.01134765625 -0.296875 0.03844140625 -0.43560546875000006 0.07971875" stroke-width="1.25"></path></g></svg>